<?xml version="1.0" standalone="no"?><!DOCTYPE svg PUBLIC "-//W3C//DTD SVG 1.1//EN" "http://www.w3.org/Graphics/SVG/1.1/DTD/svg11.dtd"><svg t="1610162676619" class="icon" viewBox="0 0 1024 1024" version="1.1" xmlns="http://www.w3.org/2000/svg" p-id="771" xmlns:xlink="http://www.w3.org/1999/xlink" width="200" height="200"><defs><style type="text/css"></style></defs><path d="M93.090909 395.031273v535.738182h837.818182V395.915636L498.408727 93.090909 93.090909 395.031273zM37.469091 320.372364L442.833455 18.432a93.090909 93.090909 0 0 1 108.962909-1.582545l432.500363 302.778181A93.090909 93.090909 0 0 1 1024 395.869091v534.946909a93.090909 93.090909 0 0 1-93.090909 93.090909H93.090909a93.090909 93.090909 0 0 1-93.090909-93.090909V395.031273a93.090909 93.090909 0 0 1 37.469091-74.658909z m321.629091 320.698181a46.545455 46.545455 0 0 0-46.545455 46.545455v1.070545a46.545455 46.545455 0 0 0 46.545455 46.545455h305.803636a46.545455 46.545455 0 0 0 46.545455-46.545455v-1.11709a46.545455 46.545455 0 0 0-46.545455-46.545455h-305.803636z" p-id="772"></path></svg>