<?xml version="1.0" standalone="no"?><!DOCTYPE svg PUBLIC "-//W3C//DTD SVG 1.1//EN" "http://www.w3.org/Graphics/SVG/1.1/DTD/svg11.dtd"><svg t="1610162723647" class="icon" viewBox="0 0 1024 1024" version="1.1" xmlns="http://www.w3.org/2000/svg" p-id="901" xmlns:xlink="http://www.w3.org/1999/xlink" width="200" height="200"><defs><style type="text/css"></style></defs><path d="M18.738135 344.359023L468.685849 9.211444a46.496612 46.496612 0 0 1 54.401036-0.836939l480.031022 336.031014a46.496612 46.496612 0 0 1 19.807556 38.127222v594.877654a46.496612 46.496612 0 0 1-46.496612 46.496612H46.496612a46.496612 46.496612 0 0 1-46.496612-46.496612V381.649306a46.496612 46.496612 0 0 1 18.738135-37.290283z m320.03618 309.992912a46.496612 46.496612 0 0 0-46.496612 46.496612v10.461738a46.496612 46.496612 0 0 0 46.496612 46.496611h345.376833a46.496612 46.496612 0 0 0 46.496612-46.496611v-10.461738a46.496612 46.496612 0 0 0-46.496612-46.496612H338.774315z" p-id="902"></path></svg>